<svg xmlns="http://www.w3.org/2000/svg" xmlns:xlink="http://www.w3.org/1999/xlink" version="1.1" x="0px" y="0px" viewBox="0 0 512 640" enable-background="new 0 0 512 512" xml:space="preserve"><g><path d="M256,58C146.822,58,58,146.822,58,256s88.822,198,198,198s198-88.822,198-198S365.178,58,256,58z M256,442   c-102.561,0-186-83.439-186-186S153.439,70,256,70s186,83.439,186,186S358.561,442,256,442z"/><path d="M139,222v67h44.758L253,338.93V172.069L183.758,222H139z M241,195.517v119.966L187.633,277H151v-43h36.633L241,195.517z"/><path d="M342.096,188.714l-8.484,8.485c7.638,7.638,13.635,16.531,17.823,26.434c4.335,10.247,6.532,21.137,6.532,32.367   s-2.197,22.12-6.532,32.367c-4.188,9.902-10.185,18.796-17.823,26.434l8.484,8.485c8.737-8.736,15.598-18.911,20.392-30.244   c4.963-11.735,7.479-24.197,7.479-37.042s-2.517-25.307-7.479-37.042C357.693,207.625,350.832,197.45,342.096,188.714z"/><path d="M294.965,215.991l-8.484,8.485c4.096,4.096,7.311,8.864,9.556,14.173c2.323,5.491,3.501,11.329,3.501,17.351   s-1.178,11.86-3.501,17.352c-2.244,5.307-5.46,10.075-9.557,14.173l8.486,8.484c5.195-5.196,9.273-11.247,12.123-17.983   c2.951-6.978,4.448-14.389,4.448-22.026s-1.497-15.048-4.448-22.025C304.238,227.235,300.159,221.185,294.965,215.991z"/></g><text x="0" y="527" fill="#000000" font-size="5px" font-weight="bold" font-family="'Helvetica Neue', Helvetica, Arial-Unicode, Arial, Sans-serif">Created by Richard Schumann</text><text x="0" y="532" fill="#000000" font-size="5px" font-weight="bold" font-family="'Helvetica Neue', Helvetica, Arial-Unicode, Arial, Sans-serif">from the Noun Project</text></svg>