<svg xmlns:dc="http://purl.org/dc/elements/1.1/" xmlns:cc="http://creativecommons.org/ns#" xmlns:rdf="http://www.w3.org/1999/02/22-rdf-syntax-ns#" xmlns:svg="http://www.w3.org/2000/svg" xmlns="http://www.w3.org/2000/svg" xmlns:sodipodi="http://sodipodi.sourceforge.net/DTD/sodipodi-0.dtd" xmlns:inkscape="http://www.inkscape.org/namespaces/inkscape" version="1.1" x="0px" y="0px" viewBox="0 0 100 125"><g transform="translate(0,-952.36218)"><path style="font-size:medium;font-style:normal;font-variant:normal;font-weight:normal;font-stretch:normal;text-indent:0;text-align:start;text-decoration:none;line-height:normal;letter-spacing:normal;word-spacing:normal;text-transform:none;direction:ltr;block-progression:tb;writing-mode:lr-tb;text-anchor:start;baseline-shift:baseline;opacity:1;color:#000000;fill:#000000;fill-opacity:1;stroke:none;stroke-width:2;marker:none;visibility:visible;display:inline;overflow:visible;enable-background:accumulate;font-family:Sans;-inkscape-font-specification:Sans" d="m 22,7 c -4.406434,0 -8,3.59357 -8,8 l 0,70 c 0,4.4064 3.593566,8 8,8 1.023932,0 2.803171,-0.8741 4.125,-1.625 C 28.052294,90.3802 79.057308,58.87965 80.71875,57.78125 81.894045,57.00525 83.378251,56.2237 84.34375,55 85.435558,53.6166 86,51.8632 86,50 86,48.13678 85.435558,46.3834 84.34375,45 83.378251,43.776255 81.894045,42.994716 80.71875,42.21875 79.057308,41.12027 28.052294,9.61981 26.125,8.625 24.803171,7.8741122 23.023932,7 22,7 z m 0,2 c 0.852378,0 2.296879,0.9320654 3.21875,1.40625 1.873257,0.96691 52.755928,32.37762 54.40625,33.46875 1.372808,0.809273 2.544539,1.64098 3.375,2.65625 0.655114,0.955599 1,2.132651 1,3.46875 0,1.3361 -0.344886,2.51315 -1,3.46875 -0.830461,1.0152 -2.002192,1.84695 -3.375,2.65625 C 77.974678,57.2161 27.092007,88.62685 25.21875,89.59375 24.296879,90.06795 22.852378,91 22,91 18.674448,91 16,88.3256 16,85 l 0,-70 c 0,-3.32555 2.674448,-6 6,-6 z" transform="translate(0,952.36218)"/></g><text x="0" y="115" fill="#000000" font-size="5px" font-weight="bold" font-family="'Helvetica Neue', Helvetica, Arial-Unicode, Arial, Sans-serif">Created by throwaway icons</text><text x="0" y="120" fill="#000000" font-size="5px" font-weight="bold" font-family="'Helvetica Neue', Helvetica, Arial-Unicode, Arial, Sans-serif">from the Noun Project</text></svg>