<svg xmlns="http://www.w3.org/2000/svg" xmlns:xlink="http://www.w3.org/1999/xlink" version="1.1" x="0px" y="0px" viewBox="0 0 512 640" enable-background="new 0 0 512 512" xml:space="preserve"><g><path d="M256,58C146.822,58,58,146.822,58,256s88.822,198,198,198s198-88.822,198-198S365.178,58,256,58z M256,442   c-102.561,0-186-83.439-186-186S153.439,70,256,70s186,83.439,186,186S358.561,442,256,442z"/><path d="M311.925,251.462l-74-64c-1.776-1.536-4.284-1.895-6.42-0.918C229.37,187.52,228,189.652,228,192v128   c0,2.348,1.37,4.48,3.505,5.457c0.798,0.365,1.649,0.543,2.494,0.543c1.415,0,2.814-0.5,3.926-1.462l74-64   c1.318-1.14,2.075-2.796,2.075-4.538S313.243,252.602,311.925,251.462z M240,306.878V205.122L298.828,256L240,306.878z"/></g><text x="0" y="527" fill="#000000" font-size="5px" font-weight="bold" font-family="'Helvetica Neue', Helvetica, Arial-Unicode, Arial, Sans-serif">Created by Richard Schumann</text><text x="0" y="532" fill="#000000" font-size="5px" font-weight="bold" font-family="'Helvetica Neue', Helvetica, Arial-Unicode, Arial, Sans-serif">from the Noun Project</text></svg>