<svg xmlns="http://www.w3.org/2000/svg" data-name="Layer 1" viewBox="0 0 100 125" x="0px" y="0px"><title>06</title><path d="M34,91a7,7,0,0,0,7-7V16a7,7,0,0,0-7-7H26a7,7,0,0,0-7,7V84a7,7,0,0,0,7,7ZM21,84V16a5,5,0,0,1,5-5h8a5,5,0,0,1,5,5V84a5,5,0,0,1-5,5H26A5,5,0,0,1,21,84Z"/><path d="M74,91a7,7,0,0,0,7-7V16a7,7,0,0,0-7-7H66a7,7,0,0,0-7,7V84a7,7,0,0,0,7,7ZM61,84V16a5,5,0,0,1,5-5h8a5,5,0,0,1,5,5V84a5,5,0,0,1-5,5H66A5,5,0,0,1,61,84Z"/><text x="0" y="115" fill="#000000" font-size="5px" font-weight="bold" font-family="'Helvetica Neue', Helvetica, Arial-Unicode, Arial, Sans-serif">Created by Karan</text><text x="0" y="120" fill="#000000" font-size="5px" font-weight="bold" font-family="'Helvetica Neue', Helvetica, Arial-Unicode, Arial, Sans-serif">from the Noun Project</text></svg>