<svg xmlns="http://www.w3.org/2000/svg" xmlns:xlink="http://www.w3.org/1999/xlink" version="1.1" x="0px" y="0px" viewBox="0 0 512 640" enable-background="new 0 0 512 512" xml:space="preserve"><g><path d="M256,58C146.822,58,58,146.822,58,256s88.822,198,198,198s198-88.822,198-198S365.178,58,256,58z M256,442   c-102.561,0-186-83.439-186-186S153.439,70,256,70s186,83.439,186,186S358.561,442,256,442z"/><path d="M184,319h52V193h-52V319z M196,205h28v102h-28V205z"/><path d="M276,319h52V193h-52V319z M288,205h28v102h-28V205z"/></g><text x="0" y="527" fill="#000000" font-size="5px" font-weight="bold" font-family="'Helvetica Neue', Helvetica, Arial-Unicode, Arial, Sans-serif">Created by Richard Schumann</text><text x="0" y="532" fill="#000000" font-size="5px" font-weight="bold" font-family="'Helvetica Neue', Helvetica, Arial-Unicode, Arial, Sans-serif">from the Noun Project</text></svg>