<svg xmlns="http://www.w3.org/2000/svg" xmlns:xlink="http://www.w3.org/1999/xlink" version="1.1" x="0px" y="0px" viewBox="0 0 512 640" enable-background="new 0 0 512 512" xml:space="preserve"><g><path d="M256,58C146.822,58,58,146.822,58,256s88.822,198,198,198s198-88.822,198-198S365.178,58,256,58z M256,442   c-102.561,0-186-83.439-186-186S153.439,70,256,70s186,83.439,186,186S358.561,442,256,442z"/><path d="M160,314v12c42.079,0,66.502-23.053,86.626-47.965l-9.335-7.541C216.196,296.608,194.979,314,160,314z"/><path d="M329.757,178.243l8.63,8.63c-34.12,4.428-55.53,25.334-73.535,47.74l9.354,7.517   c17.895-22.268,35.855-38.279,61.996-42.817l-6.445,6.445l8.485,8.485L360.485,192l-22.243-22.243L329.757,178.243z"/><path d="M329.757,305.243l7.597,7.597c-35.518-5.758-55.526-32.402-76.555-60.44C236.317,219.756,211,186,160,186v12   c45,0,67.441,29.921,91.2,61.6c22.042,29.39,44.771,59.667,86.3,65.415l-7.743,7.743l8.485,8.485L360.485,319l-22.243-22.243   L329.757,305.243z"/></g><text x="0" y="527" fill="#000000" font-size="5px" font-weight="bold" font-family="'Helvetica Neue', Helvetica, Arial-Unicode, Arial, Sans-serif">Created by Richard Schumann</text><text x="0" y="532" fill="#000000" font-size="5px" font-weight="bold" font-family="'Helvetica Neue', Helvetica, Arial-Unicode, Arial, Sans-serif">from the Noun Project</text></svg>