<svg xmlns="http://www.w3.org/2000/svg" xmlns:xlink="http://www.w3.org/1999/xlink" version="1.1" x="0px" y="0px" viewBox="0 0 113.4 141.75" enable-background="new 0 0 113.4 113.4" xml:space="preserve"><path d="M81.2,27c-0.7,0-1.3,0.6-1.3,1.3v26.1L32.8,27.2c-0.4-0.2-0.9-0.2-1.3,0c-0.4,0.2-0.7,0.7-0.7,1.1V85c0,0.5,0.2,0.9,0.7,1.1  c0.2,0.1,0.4,0.2,0.7,0.2s0.5-0.1,0.7-0.2L79.9,59V85c0,0.7,0.6,1.3,1.3,1.3s1.3-0.6,1.3-1.3V28.4C82.6,27.6,82,27,81.2,27z   M33.5,82.8V30.6l45.2,26.1L33.5,82.8z"/><text x="0" y="128.4" fill="#000000" font-size="5px" font-weight="bold" font-family="'Helvetica Neue', Helvetica, Arial-Unicode, Arial, Sans-serif">Created by Jonas Ekholst</text><text x="0" y="133.4" fill="#000000" font-size="5px" font-weight="bold" font-family="'Helvetica Neue', Helvetica, Arial-Unicode, Arial, Sans-serif">from the Noun Project</text></svg>